<svg xmlns="http://www.w3.org/2000/svg" viewBox="0 0 64 64">
  <defs>
    <linearGradient id="g" x1="0" y1="0" x2="1" y2="1">
      <stop offset="0" stop-color="#7c5cff"/>
      <stop offset="1" stop-color="#4cc9f0"/>
    </linearGradient>
  </defs>
  <path d="M32 8c7 0 16 4 16 16 0 9-5 18-10 18-3 0-4-3-6-3s-3 3-6 3c-5 0-10-9-10-18 0-12 9-16 16-16z"
        fill="none" stroke="url(#g)" stroke-width="4" stroke-linecap="round" stroke-linejoin="round"/>
  <path d="M42 14l1.5 3.5L47 19l-3.5 1.5L42 24l-1.5-3.5L37 19l3.5-1.5L42 14z" fill="#7c5cff" opacity="0.9"/>
  <circle cx="24" cy="28" r="1.8" fill="#4cc9f0"/>
  <circle cx="40" cy="28" r="1.8" fill="#4cc9f0"/>
  <path d="M24 28h16" stroke="#4cc9f0" stroke-width="2" stroke-linecap="round" opacity="0.7"/>
</svg>